<?xml version="1.0" standalone="no"?>
<!DOCTYPE svg PUBLIC "-//W3C//DTD SVG 20010904//EN"
 "http://www.w3.org/TR/2001/REC-SVG-20010904/DTD/svg10.dtd">
<svg version="1.0" xmlns="http://www.w3.org/2000/svg"
 width="70.000000pt" height="70.000000pt" viewBox="0 0 840.000000 675.000000"
 preserveAspectRatio="xMidYMid meet">

<g transform="translate(0.000000,675.000000) scale(0.100000,-0.100000)"
fill="#FFF" stroke="none">
<path d="M3301 6326 c-38 -98 -38 -253 0 -347 30 -78 98 -174 177 -252 l69
-69 82 142 c79 138 81 144 71 181 -12 44 -7 71 27 149 l24 55 -43 37 c-104 88
-206 128 -330 128 -63 0 -69 -2 -77 -24z"/>
<path d="M3787 5966 c-21 -8 -40 -16 -42 -18 -1 -1 -38 -73 -80 -158 -68 -136
-222 -406 -987 -1738 -92 -162 -168 -295 -168 -298 0 -2 28 -4 63 -4 l62 0
152 263 c650 1128 890 1539 923 1583 34 46 79 89 209 201 l34 29 -16 55 c-9
31 -25 63 -35 72 -26 24 -71 29 -115 13z"/>
<path d="M3844 5681 c-53 -31 -88 -69 -122 -137 l-21 -42 82 -55 c45 -30 168
-106 272 -168 408 -242 587 -369 713 -505 119 -127 171 -237 172 -360 0 -135
-55 -243 -197 -382 l-85 -82 39 -218 40 -217 181 -3 182 -2 0 22 c0 13 -7 66
-15 118 -22 145 -24 138 57 195 299 211 366 521 189 873 -55 109 -146 233
-247 336 -96 98 -96 98 -528 295 -228 104 -395 193 -547 292 -58 38 -108 69
-110 69 -2 0 -27 -13 -55 -29z"/>
<path d="M5220 3752 c0 -4 50 -65 110 -135 61 -71 110 -130 110 -133 0 -2
-497 -4 -1104 -4 l-1105 0 -101 120 -101 120 -421 0 c-335 0 -418 -3 -410 -12
6 -7 60 -53 120 -103 l109 -90 120 -220 121 -220 178 -3 178 -2 101 100 100
100 1109 -2 1109 -3 -116 -135 c-63 -74 -114 -136 -113 -137 1 -1 58 13 126
32 262 72 521 170 753 287 l120 60 -69 40 c-176 104 -469 225 -689 287 -148
41 -235 61 -235 53z"/>
<path d="M2369 3501 c-21 -17 -24 -27 -23 -83 0 -61 4 -69 101 -243 55 -99
229 -412 385 -695 157 -283 391 -706 520 -940 130 -234 271 -496 314 -582 85
-171 96 -183 176 -183 49 0 75 26 95 94 l16 55 -34 29 c-130 112 -175 155
-209 201 -21 28 -119 197 -218 376 -98 179 -327 593 -507 920 -438 795 -587
1064 -590 1068 -1 1 -13 -6 -26 -17z"/>
<path d="M2290 3158 l-104 -83 77 -3 c43 -2 109 -2 146 0 l69 3 -42 83 -42 83
-104 -83z"/>
<path d="M4737 3228 c-2 -7 -21 -106 -42 -221 l-37 -207 84 -83 c100 -96 140
-153 173 -242 77 -205 -22 -418 -293 -633 -135 -107 -226 -167 -502 -332 -140
-84 -292 -177 -337 -207 l-82 -55 21 -42 c33 -66 82 -119 132 -144 l47 -24
107 70 c152 100 320 190 523 282 97 44 242 111 322 149 138 65 148 72 231 157
148 151 264 335 316 499 30 97 37 239 16 329 -34 143 -134 282 -274 381 -81
57 -79 50 -57 195 8 52 15 105 15 118 l0 22 -179 0 c-134 0 -180 -3 -184 -12z"/>
<path d="M3469 1013 c-89 -92 -132 -153 -167 -236 -23 -55 -26 -76 -26 -177 0
-79 5 -127 16 -155 l15 -40 67 -3 c120 -5 233 37 336 127 l41 36 -24 55 c-34
78 -39 105 -27 150 10 38 9 43 -66 172 -42 73 -79 136 -83 141 -4 4 -41 -28
-82 -70z"/>
</g>
</svg>
